<svg xmlns="http://www.w3.org/2000/svg" width="78" height="78" viewBox="0 0 78 78" fill="none">
    <path d="M56.46 30.09L53.454 27.084C52.899 26.529 52.002 26.529 51.45 27.084L33.408 45.123L24.831 36.477C24.273 35.922 23.379 35.922 22.821 36.477L19.815 39.486C19.26 40.041 19.26 40.938 19.815 41.49L32.394 54.159C32.949 54.711 33.846 54.711 34.398 54.159L56.46 32.097C57.018 31.542 57.018 30.645 56.46 30.09ZM39 0C17.46 0 0 17.46 0 39C0 60.54 17.46 78 39 78C60.54 78 78 60.54 78 39C78 17.46 60.54 0 39 0ZM39 69C22.434 69 9 55.566 9 39C9 22.431 22.434 9 39 9C55.569 9 69 22.431 69 39C69 55.566 55.569 69 39 69Z"
          fill="#E91E63"/>
</svg>